name Walk8.mot
datacolumns 19
datarows 10
range 3.81800000 3.82700000
endheader

                time	   L_ground_force_vx	   L_ground_force_vy	   L_ground_force_vz	   L_ground_force_px	   L_ground_force_py	   L_ground_force_pz	   R_ground_force_vx	   R_ground_force_vy	   R_ground_force_vz	   R_ground_force_px	   R_ground_force_py	   R_ground_force_pz	   L_ground_torque_x	   L_ground_torque_y	   L_ground_torque_z	   R_ground_torque_x	   R_ground_torque_y	   R_ground_torque_z	
          3.81800000	          0.00000000	          0.00000000	          0.00000000	          0.00000000	          0.00000000	          0.00000000	        -19.36944594	        696.26501154	        -40.77212382	          0.25030952	          0.00000000	          0.05076359	          0.00000000	          0.00000000	          0.00000000	          0.00000000	          6.34859718	          0.00000000	
          3.81900000	          0.00000000	          0.00000000	          0.00000000	          0.00000000	          0.00000000	          0.00000000	        -18.91207103	        695.48931022	        -40.51338355	          0.25027188	          0.00000000	          0.05072976	          0.00000000	          0.00000000	          0.00000000	          0.00000000	          6.23503052	          0.00000000	
          3.82000000	          0.00000000	          0.00000000	          0.00000000	          0.00000000	          0.00000000	          0.00000000	        -18.47121888	        694.68959751	        -40.28525258	          0.25020594	          0.00000000	          0.05070880	          0.00000000	          0.00000000	          0.00000000	          0.00000000	          6.12986418	          0.00000000	
          3.82100000	          0.00000000	          0.00000000	          0.00000000	          0.00000000	          0.00000000	          0.00000000	        -18.03181617	        693.86213139	        -40.07930129	          0.25015632	          0.00000000	          0.05068432	          0.00000000	          0.00000000	          0.00000000	          0.00000000	          6.03027577	          0.00000000	
          3.82200000	          0.00000000	          0.00000000	          0.00000000	          0.00000000	          0.00000000	          0.00000000	        -17.58263227	        693.00804200	        -39.87370809	          0.25015670	          0.00000000	          0.05064705	          0.00000000	          0.00000000	          0.00000000	          0.00000000	          5.93313585	          0.00000000	
          3.82300000	          0.00000000	          0.00000000	          0.00000000	          0.00000000	          0.00000000	          0.00000000	        -17.12803537	        692.13276322	        -39.65733762	          0.25019233	          0.00000000	          0.05058741	          0.00000000	          0.00000000	          0.00000000	          0.00000000	          5.83904163	          0.00000000	
          3.82400000	          0.00000000	          0.00000000	          0.00000000	          0.00000000	          0.00000000	          0.00000000	        -16.68181625	        691.24890822	        -39.43955894	          0.25022709	          0.00000000	          0.05050057	          0.00000000	          0.00000000	          0.00000000	          0.00000000	          5.75117871	          0.00000000	
          3.82500000	          0.00000000	          0.00000000	          0.00000000	          0.00000000	          0.00000000	          0.00000000	        -16.25290878	        690.37963262	        -39.23730384	          0.25025121	          0.00000000	          0.05039114	          0.00000000	          0.00000000	          0.00000000	          0.00000000	          5.67044283	          0.00000000	
          3.82600000	          0.00000000	          0.00000000	          0.00000000	          0.00000000	          0.00000000	          0.00000000	        -15.83737400	        689.54340763	        -39.05942129	          0.25028683	          0.00000000	          0.05026917	          0.00000000	          0.00000000	          0.00000000	          0.00000000	          5.59223904	          0.00000000	
          3.82700000	          0.00000000	          0.00000000	          0.00000000	          0.00000000	          0.00000000	          0.00000000	        -15.42537696	        688.73837764	        -38.90226127	          0.25035920	          0.00000000	          0.05014890	          0.00000000	          0.00000000	          0.00000000	          0.00000000	          5.50896662	          0.00000000	
